<?xml version="1.0" standalone="no"?><!DOCTYPE svg PUBLIC "-//W3C//DTD SVG 1.1//EN" "http://www.w3.org/Graphics/SVG/1.1/DTD/svg11.dtd"><svg t="1693816017043" class="icon" viewBox="0 0 1024 1024" version="1.1" xmlns="http://www.w3.org/2000/svg" p-id="4913" xmlns:xlink="http://www.w3.org/1999/xlink" width="200" height="200"><path d="M335.9 406.4c-7.6 0-13.8 6.2-13.8 13.8V636c0 7.6 6.2 13.8 13.8 13.8s13.8-6.2 13.8-13.8V420.2c0-7.6-6.2-13.8-13.8-13.8zM721.1 508.4c-7.6 0-13.8 6.2-13.8 13.8V636c0 7.6 6.2 13.8 13.8 13.8S735 643.6 735 636V522.2c0-7.7-6.2-13.8-13.9-13.8zM464.3 233.4c-7.6 0-13.8 6.2-13.8 13.8V636c0 7.6 6.2 13.8 13.8 13.8 7.6 0 13.8-6.2 13.8-13.8V247.2c0-7.6-6.2-13.8-13.8-13.8zM753.1 669.6h-481c-7.6 0-13.8 6.2-13.8 13.8 0 7.6 6.2 13.8 13.8 13.8h481c7.6 0 13.8-6.2 13.8-13.8 0.1-7.6-6.1-13.8-13.8-13.8zM592.7 324.5c-7.6 0-13.8 6.2-13.8 13.8V636c0 7.6 6.2 13.8 13.8 13.8s13.8-6.2 13.8-13.8V338.3c0-7.7-6.2-13.8-13.8-13.8z" fill="#1296db" p-id="4914"></path><path d="M512.7 98.2C284 98.2 98 284.2 98 512.9c0 23.9 2.6 48.2 6.5 71 0 0.1 0.2 0.1 0.3 0.2 1.7 5.8 6.8 10.1 13.1 10.1 7.6 0 13.8-6.2 13.8-13.8 0-0.5-0.2-0.9-0.3-1.3l0.2-0.1c-3.7-21.5-6-43.4-6-66 0-213.7 173.3-387 387-387s387 173.3 387 387-173.3 387-387 387c-142.8 0-267.3-77.6-334.3-192.7 0-0.1-0.1-0.1-0.1-0.2l-0.6-0.9c-2.3-4.3-6.8-7.4-12-7.4-7.6 0-13.8 6.2-13.8 13.8 0 3 1.2 5.6 2.8 7.9l-0.2 0.1c71.9 123.5 205.4 207 358.3 207 228.6 0 414.6-186 414.6-414.6S741.3 98.2 512.7 98.2z" fill="#1296db" p-id="4915"></path></svg>