<?xml version="1.0" standalone="no"?><!DOCTYPE svg PUBLIC "-//W3C//DTD SVG 1.1//EN" "http://www.w3.org/Graphics/SVG/1.1/DTD/svg11.dtd"><svg t="1683635089641" class="icon" viewBox="0 0 1024 1024" version="1.1" xmlns="http://www.w3.org/2000/svg" p-id="3263" xmlns:xlink="http://www.w3.org/1999/xlink" width="200" height="200"><path d="M0 0m0 0l1024 0q0 0 0 0l0 1024q0 0 0 0l-1024 0q0 0 0 0l0-1024q0 0 0 0Z" fill="#E8EFF8" p-id="3264"></path><path d="M162.909091 418.909091a23.272727 23.272727 0 0 1 23.272727-23.272727h116.363637a23.272727 23.272727 0 0 1 23.272727 23.272727v418.909091a23.272727 23.272727 0 0 1-23.272727 23.272727H186.181818a23.272727 23.272727 0 0 1-23.272727-23.272727V418.909091z" fill="#247ADE" p-id="3265"></path><path d="M418.909091 558.545455a23.272727 23.272727 0 0 1 23.272727-23.272728h116.363637a23.272727 23.272727 0 0 1 23.272727 23.272728v279.272727a23.272727 23.272727 0 0 1-23.272727 23.272727h-116.363637a23.272727 23.272727 0 0 1-23.272727-23.272727V558.545455z" fill="#69CB91" p-id="3266"></path><path d="M837.818182 256a23.272727 23.272727 0 0 0-23.272727-23.272727h-116.363637a23.272727 23.272727 0 0 0-23.272727 23.272727v581.818182a23.272727 23.272727 0 0 0 23.272727 23.272727h116.363637a23.272727 23.272727 0 0 0 23.272727-23.272727V256z" fill="#A0BFF7" p-id="3267"></path></svg>